<svg width="104" height="31" viewBox="0 0 104 31" fill="none" xmlns="http://www.w3.org/2000/svg">
<path d="M61.5248 25.959L61.5248 25.959L61.5273 25.9608C62.642 26.7654 63.9311 27.217 65.3875 27.3187C66.5646 27.4009 67.6647 27.2369 68.684 26.8231L68.684 26.8231L68.6859 26.8223C69.5109 26.4794 70.2493 26.0209 70.8997 25.447L70.8698 25.8753C70.836 26.3594 70.9628 26.7907 71.2565 27.153L71.2619 27.1597L71.2678 27.166C71.5857 27.5072 71.9953 27.6928 72.4794 27.7266C72.9634 27.7604 73.3889 27.633 73.7347 27.3323C74.0974 27.0169 74.2965 26.6064 74.3307 26.117L74.7831 19.6411C74.8927 18.0715 74.6239 16.6274 73.9718 15.3149C73.3414 14.0084 72.4313 12.9505 71.2437 12.145C70.0537 11.3175 68.6798 10.8515 67.129 10.7432C65.5779 10.6348 64.1433 10.9048 62.8312 11.5569C61.543 12.1893 60.4851 13.1096 59.6598 14.3139L59.6598 14.3138L59.6582 14.3163C58.8497 15.5267 58.3927 16.9195 58.2831 18.4884C58.1738 20.0536 58.4022 21.4915 58.9738 22.7968L58.9738 22.7968L58.9757 22.8011C59.5672 24.0845 60.4173 25.1385 61.5248 25.959ZM70.9865 16.6926L70.9864 16.6926L70.9875 16.6948C71.3563 17.4963 71.5088 18.3984 71.4384 19.4074C71.3693 20.3957 71.0933 21.2687 70.614 22.032C70.1352 22.7774 69.5128 23.3529 68.7442 23.7621C67.982 24.1495 67.1314 24.313 66.1857 24.2469C65.2608 24.1823 64.4403 23.9028 63.7183 23.4103C63.0143 22.8981 62.4681 22.2405 62.0784 21.4337C61.7105 20.6117 61.5589 19.7095 61.6279 18.7221C61.6983 17.7135 61.9747 16.8416 62.451 16.0994C62.9512 15.3342 63.5836 14.7599 64.349 14.3704L64.349 14.3704L64.3506 14.3696C65.1357 13.9631 65.9874 13.791 66.9116 13.8556C67.8562 13.9216 68.6744 14.2107 69.374 14.7191L69.374 14.7191L69.3777 14.7217C70.0809 15.2133 70.6169 15.8683 70.9865 16.6926Z" fill="#C594FF" stroke="black" stroke-width="0.5"/>
<path d="M54.0253 23.874C54.6868 23.0399 55.1598 22.2069 55.4368 21.3748C55.5959 20.9227 55.5638 20.4965 55.2983 20.1354C55.0417 19.7866 54.6524 19.5887 54.1688 19.5183L54.1688 19.5183L54.1637 19.5176C53.7705 19.4687 53.4042 19.5702 53.0756 19.8099C52.7536 20.022 52.5222 20.3245 52.3792 20.705L52.3792 20.705L52.3783 20.7075C52.2237 21.1326 51.9514 21.6108 51.5526 22.1429C51.1651 22.6406 50.7321 23.0441 50.2541 23.3563C49.0622 24.1347 47.8435 24.4516 46.5904 24.3226C45.4362 24.1785 44.4469 23.6948 43.616 22.8648L52.6265 16.9801C52.9967 16.7383 53.2442 16.416 53.3455 16.0141L53.3457 16.0141L53.3478 16.0043C53.4351 15.5879 53.3564 15.1916 53.1199 14.8294C52.2646 13.5198 51.2572 12.5204 50.095 11.8411C48.9372 11.1343 47.6959 10.8003 46.3762 10.8434C45.0406 10.8704 43.7218 11.3157 42.4229 12.164C41.1067 13.0236 40.1281 14.0909 39.4969 15.3671C38.8565 16.6244 38.5882 17.975 38.6912 19.4138L38.6911 19.4138L38.6913 19.4152C38.8005 20.8316 39.3052 22.2217 40.1947 23.5837C41.0753 24.9319 42.1632 25.9425 43.4598 26.6062L43.4598 26.6063L43.464 26.6083C44.763 27.2426 46.1472 27.5111 47.6119 27.414L47.6119 27.414L47.6165 27.4137C49.0902 27.2887 50.5175 26.7716 51.8965 25.8711C52.6698 25.366 53.379 24.699 54.0253 23.874ZM54.0253 23.874C54.0252 23.8742 54.025 23.8744 54.0249 23.8746L53.8291 23.7193L54.0258 23.8734C54.0256 23.8736 54.0255 23.8738 54.0253 23.874ZM47.1722 14.0173L47.1721 14.0173L47.1751 14.0179C48.1189 14.2282 48.9644 14.7196 49.7124 15.5045L42.0996 20.4764C41.7211 19.437 41.6648 18.4223 41.9228 17.4256C42.2001 16.3546 42.9032 15.4377 44.0653 14.6787C45.1236 13.9875 46.1546 13.7777 47.1722 14.0173Z" fill="#964DEC" stroke="black" stroke-width="0.5"/>
<path d="M31.5858 11.5086L31.5858 11.5085L31.5836 11.5089C30.86 11.64 30.1872 11.8779 29.5665 12.2226C29.6795 11.7442 29.6555 11.3119 29.4473 10.9559C29.2288 10.5824 28.8376 10.3444 28.3309 10.2117C27.8243 10.079 27.3667 10.0947 26.9931 10.3132C26.6196 10.5317 26.3816 10.9229 26.249 11.4295L22.9523 24.0176C22.8197 24.5243 22.8353 24.9819 23.0538 25.3554C23.2724 25.729 23.6635 25.9669 24.1702 26.0996C24.6768 26.2323 25.1344 26.2166 25.508 25.9981C25.8815 25.7796 26.1195 25.3884 26.2522 24.8818L28.4056 16.6587C28.617 15.8516 29.0394 15.2671 29.669 14.8837C30.3293 14.498 31.1398 14.3189 32.1135 14.3615C33.0831 14.4039 34.1238 14.6934 35.238 15.2406L35.2387 15.2409C35.6267 15.43 36.0092 15.5124 36.3796 15.4661L36.3797 15.4664L36.3935 15.4639C36.8056 15.3887 37.1166 15.1104 37.3378 14.6968C37.4957 14.4132 37.5488 14.1125 37.484 13.8048C37.4206 13.5036 37.2489 13.2172 36.9961 12.9451C36.5005 12.3719 35.6566 11.9496 34.5144 11.6505C33.5243 11.3912 32.5473 11.343 31.5858 11.5086Z" fill="#C594FF" stroke="black" stroke-width="0.5"/>
<path d="M22.2097 15.3985L22.2097 15.3973C22.2201 13.8638 21.9212 12.3037 21.317 10.7184C20.7129 9.13311 19.901 7.77835 18.8788 6.65834C17.8584 5.54024 16.6806 4.68082 15.3461 4.08266C14.005 3.46645 12.5762 3.14982 11.0622 3.13208C9.55605 3.08923 8.00935 3.37259 6.42393 3.9768L1.50027 5.85321C1.04328 6.02738 0.708743 6.3357 0.511933 6.77229C0.304192 7.19883 0.300452 7.65769 0.480244 8.12946L7.49865 26.5456C7.67333 27.0039 7.98298 27.3391 8.42164 27.5357C8.8603 27.7322 9.31654 27.7403 9.7749 27.5656L14.6986 25.6892C16.2837 25.0851 17.6299 24.2764 18.7323 23.2605L18.7336 23.2592C19.844 22.2209 20.6994 21.0344 21.2972 19.7004L21.2981 19.6982C21.8886 18.3461 22.1923 16.9121 22.2097 15.3985ZM11.8439 6.45876L11.8456 6.45904C13.2418 6.69141 14.4881 7.27139 15.5883 8.20213C16.6856 9.13031 17.5341 10.3707 18.1296 11.9331C18.7177 13.4765 18.9105 14.9675 18.7159 16.4099C18.514 17.837 17.9729 19.1089 17.0915 20.2302C16.2249 21.3218 15.0533 22.1528 13.5667 22.7193L10.2912 23.9676L4.28023 8.19495L7.55574 6.94665C9.04262 6.38 10.4704 6.22057 11.8439 6.45876Z" fill="#964DEC" stroke="black" stroke-width="0.5"/>
<path d="M83.073 28.0965L83.0809 28.0999L83.089 28.1028C83.5281 28.2597 83.9772 28.2364 84.4226 28.0439C84.8827 27.8452 85.213 27.5341 85.3831 27.1053L85.3832 27.1054L85.3861 27.0973C85.543 26.6581 85.5197 26.2091 85.3272 25.7636L82.0719 18.2273C81.6627 17.2799 81.6199 16.3959 81.9239 15.5609C82.2278 14.726 82.804 14.1245 83.6708 13.75C84.5101 13.3875 85.2816 13.3605 86.002 13.6463L86.002 13.6463L86.0059 13.6478C86.7014 13.9106 87.2964 14.5516 87.7667 15.6406L91.0683 23.2837C91.2607 23.7292 91.5716 24.054 91.9989 24.2408L92.0068 24.2443L92.0149 24.2472C92.4541 24.4041 92.9031 24.3807 93.3486 24.1883C93.8086 23.9896 94.1389 23.6785 94.309 23.2497L94.3092 23.2498L94.3121 23.2417C94.469 22.8025 94.4456 22.3535 94.2532 21.908L90.9978 14.3717C90.5881 13.4231 90.5371 12.5421 90.8237 11.7151C91.1278 10.8811 91.7038 10.2801 92.57 9.90594C93.4093 9.54343 94.1808 9.51644 94.9013 9.80223L94.9012 9.80226L94.9051 9.80371C95.6006 10.0665 96.1956 10.7075 96.666 11.7965L99.9675 19.4397C100.16 19.8851 100.471 20.21 100.898 20.3968L100.906 20.4002L100.914 20.4031C101.353 20.5601 101.802 20.5367 102.248 20.3442C102.708 20.1455 103.038 19.8345 103.208 19.4057L103.208 19.4057L103.211 19.3976C103.368 18.9584 103.345 18.5094 103.152 18.0639L99.8509 10.4208C99.0337 8.52899 97.8983 7.25125 96.4276 6.63669C94.965 6.02549 93.4315 6.07179 91.8442 6.75742C90.8173 7.20101 89.9671 7.79694 89.2997 8.548C88.7124 9.20902 88.2882 9.9387 88.0302 10.736C86.4754 9.85044 84.7711 9.81269 82.945 10.6015C82.1698 10.9364 81.5053 11.3876 80.9551 11.9564C80.5196 12.3865 80.1689 12.8621 79.9046 13.3826C79.7326 13.1739 79.5146 13.0152 79.2517 12.9108C78.8229 12.7407 78.3699 12.768 77.9099 12.9667C77.4644 13.1591 77.1396 13.47 76.9528 13.8973L76.9527 13.8973L76.9495 13.9053C76.7794 14.3341 76.8067 14.787 77.0054 15.247L82.1423 27.1393C82.3348 27.5848 82.6456 27.9097 83.073 28.0965Z" fill="#964DEC" stroke="black" stroke-width="0.5"/>
</svg>
